<svg xmlns="http://www.w3.org/2000/svg" xmlns:xlink="http://www.w3.org/1999/xlink" width="384" zoomAndPan="magnify" viewBox="0 0 288 113.249998" height="151" preserveAspectRatio="xMidYMid meet" version="1.0"><defs><g/></defs><g fill="#c64fff" fill-opacity="1"><g transform="translate(16.915192, 20.62747)"><g><path d="M 7.1875 -14.1875 C 8.101562 -14.1875 8.953125 -14.007812 9.734375 -13.65625 C 10.523438 -13.300781 11.175781 -12.8125 11.6875 -12.1875 C 12.195312 -11.570312 12.515625 -10.890625 12.640625 -10.140625 C 12.660156 -10.078125 12.671875 -10 12.671875 -9.90625 C 12.671875 -9.832031 12.65625 -9.78125 12.625 -9.75 C 12.59375 -9.726562 12.535156 -9.710938 12.453125 -9.703125 L 10.3125 -9.546875 C 10.21875 -9.546875 10.15625 -9.5625 10.125 -9.59375 C 10.09375 -9.625 10.066406 -9.695312 10.046875 -9.8125 C 9.890625 -10.539062 9.570312 -11.125 9.09375 -11.5625 C 8.613281 -12 8.003906 -12.21875 7.265625 -12.21875 C 5.015625 -12.21875 3.890625 -10.492188 3.890625 -7.046875 C 3.890625 -5.296875 4.171875 -4 4.734375 -3.15625 C 5.304688 -2.320312 6.171875 -1.90625 7.328125 -1.90625 C 8.128906 -1.90625 8.800781 -2.101562 9.34375 -2.5 C 9.894531 -2.894531 10.34375 -3.535156 10.6875 -4.421875 C 10.71875 -4.515625 10.828125 -4.546875 11.015625 -4.515625 L 12.625 -4.171875 C 12.6875 -4.148438 12.734375 -4.109375 12.765625 -4.046875 C 12.804688 -3.992188 12.816406 -3.894531 12.796875 -3.75 C 12.648438 -3.1875 12.34375 -2.601562 11.875 -2 C 11.414062 -1.394531 10.789062 -0.878906 10 -0.453125 C 9.207031 -0.0234375 8.273438 0.1875 7.203125 0.1875 C 5.929688 0.1875 4.820312 -0.109375 3.875 -0.703125 C 2.9375 -1.304688 2.21875 -2.15625 1.71875 -3.25 C 1.21875 -4.351562 0.96875 -5.628906 0.96875 -7.078125 C 0.96875 -8.535156 1.21875 -9.796875 1.71875 -10.859375 C 2.21875 -11.929688 2.9375 -12.753906 3.875 -13.328125 C 4.8125 -13.898438 5.914062 -14.1875 7.1875 -14.1875 Z M 7.1875 -14.1875 "/></g></g></g><g fill="#ffffff" fill-opacity="1"><g transform="translate(30.489358, 20.62747)"><g><path d="M 12.375 -0.453125 C 12.40625 -0.410156 12.421875 -0.351562 12.421875 -0.28125 C 12.421875 -0.207031 12.394531 -0.140625 12.34375 -0.078125 C 12.289062 -0.0234375 12.222656 0 12.140625 0 L 9.828125 0 C 9.734375 0 9.65625 -0.0195312 9.59375 -0.0625 C 9.539062 -0.101562 9.492188 -0.179688 9.453125 -0.296875 L 7.28125 -5.8125 C 7.25 -5.90625 7.191406 -5.96875 7.109375 -6 C 7.035156 -6.039062 6.925781 -6.0625 6.78125 -6.0625 L 4.515625 -6.0625 C 4.359375 -6.0625 4.28125 -5.988281 4.28125 -5.84375 L 4.28125 -0.390625 C 4.28125 -0.253906 4.242188 -0.15625 4.171875 -0.09375 C 4.109375 -0.03125 4 0 3.84375 0 L 1.84375 0 C 1.707031 0 1.613281 -0.0234375 1.5625 -0.078125 C 1.507812 -0.140625 1.484375 -0.226562 1.484375 -0.34375 L 1.484375 -13.6875 C 1.484375 -13.894531 1.582031 -14 1.78125 -14 L 7.453125 -14 C 9.078125 -14 10.335938 -13.671875 11.234375 -13.015625 C 12.128906 -12.367188 12.578125 -11.441406 12.578125 -10.234375 C 12.578125 -9.285156 12.320312 -8.492188 11.8125 -7.859375 C 11.3125 -7.234375 10.679688 -6.789062 9.921875 -6.53125 C 9.828125 -6.488281 9.804688 -6.40625 9.859375 -6.28125 Z M 7.0625 -7.984375 C 8.8125 -7.984375 9.6875 -8.660156 9.6875 -10.015625 C 9.6875 -10.703125 9.472656 -11.21875 9.046875 -11.5625 C 8.628906 -11.914062 8.039062 -12.09375 7.28125 -12.09375 L 4.625 -12.09375 C 4.5 -12.09375 4.410156 -12.070312 4.359375 -12.03125 C 4.304688 -12 4.28125 -11.929688 4.28125 -11.828125 L 4.28125 -8.265625 C 4.28125 -8.160156 4.296875 -8.085938 4.328125 -8.046875 C 4.367188 -8.003906 4.4375 -7.984375 4.53125 -7.984375 Z M 7.0625 -7.984375 "/></g></g></g><g fill="#ffffff" fill-opacity="1"><g transform="translate(43.944482, 20.62747)"><g><path d="M 7.28125 0.1875 C 5.988281 0.1875 4.867188 -0.09375 3.921875 -0.65625 C 2.984375 -1.226562 2.257812 -2.050781 1.75 -3.125 C 1.238281 -4.195312 0.984375 -5.472656 0.984375 -6.953125 C 0.984375 -8.441406 1.238281 -9.726562 1.75 -10.8125 C 2.269531 -11.90625 3 -12.738281 3.9375 -13.3125 C 4.882812 -13.894531 6 -14.1875 7.28125 -14.1875 C 8.550781 -14.1875 9.65625 -13.894531 10.59375 -13.3125 C 11.539062 -12.738281 12.273438 -11.90625 12.796875 -10.8125 C 13.316406 -9.726562 13.578125 -8.445312 13.578125 -6.96875 C 13.578125 -5.488281 13.320312 -4.210938 12.8125 -3.140625 C 12.300781 -2.066406 11.570312 -1.242188 10.625 -0.671875 C 9.6875 -0.0976562 8.570312 0.1875 7.28125 0.1875 Z M 7.296875 -1.8125 C 8.441406 -1.8125 9.285156 -2.21875 9.828125 -3.03125 C 10.367188 -3.851562 10.640625 -5.148438 10.640625 -6.921875 C 10.640625 -8.734375 10.363281 -10.066406 9.8125 -10.921875 C 9.269531 -11.785156 8.425781 -12.21875 7.28125 -12.21875 C 6.132812 -12.21875 5.28125 -11.785156 4.71875 -10.921875 C 4.164062 -10.066406 3.890625 -8.734375 3.890625 -6.921875 C 3.890625 -5.148438 4.164062 -3.851562 4.71875 -3.03125 C 5.269531 -2.21875 6.128906 -1.8125 7.296875 -1.8125 Z M 7.296875 -1.8125 "/></g></g></g><g fill="#ffffff" fill-opacity="1"><g transform="translate(58.475265, 20.62747)"><g><path d="M 4.015625 -14 C 4.191406 -14 4.28125 -13.898438 4.28125 -13.703125 L 4.28125 -0.421875 C 4.28125 -0.265625 4.242188 -0.15625 4.171875 -0.09375 C 4.109375 -0.03125 3.992188 0 3.828125 0 L 1.875 0 C 1.71875 0 1.613281 -0.0234375 1.5625 -0.078125 C 1.507812 -0.128906 1.484375 -0.21875 1.484375 -0.34375 L 1.484375 -13.6875 C 1.484375 -13.894531 1.582031 -14 1.78125 -14 Z M 4.015625 -14 "/></g></g></g><g fill="#ffffff" fill-opacity="1"><g transform="translate(64.249832, 20.62747)"><g><path d="M 12.640625 -0.625 C 12.753906 -0.4375 12.8125 -0.296875 12.8125 -0.203125 C 12.8125 -0.0664062 12.691406 0 12.453125 0 L 10.25 0 C 10.007812 0 9.847656 -0.0820312 9.765625 -0.25 L 6.78125 -4.90625 C 6.675781 -5.0625 6.597656 -5.140625 6.546875 -5.140625 C 6.472656 -5.140625 6.390625 -5.054688 6.296875 -4.890625 L 3.359375 -0.25 C 3.285156 -0.0820312 3.109375 0 2.828125 0 L 1.03125 0 C 0.789062 0 0.671875 -0.0625 0.671875 -0.1875 C 0.671875 -0.300781 0.738281 -0.445312 0.875 -0.625 L 4.96875 -6.828125 C 5.039062 -6.941406 5.078125 -7.03125 5.078125 -7.09375 C 5.078125 -7.164062 5.03125 -7.269531 4.9375 -7.40625 L 0.890625 -13.578125 C 0.847656 -13.640625 0.828125 -13.707031 0.828125 -13.78125 C 0.828125 -13.84375 0.847656 -13.894531 0.890625 -13.9375 C 0.941406 -13.976562 1.003906 -14 1.078125 -14 L 3.421875 -14 C 3.554688 -14 3.65625 -13.976562 3.71875 -13.9375 C 3.789062 -13.90625 3.851562 -13.835938 3.90625 -13.734375 L 6.59375 -9.5 C 6.632812 -9.40625 6.6875 -9.359375 6.75 -9.359375 C 6.832031 -9.359375 6.90625 -9.410156 6.96875 -9.515625 L 9.640625 -13.734375 C 9.691406 -13.835938 9.75 -13.90625 9.8125 -13.9375 C 9.882812 -13.976562 9.984375 -14 10.109375 -14 L 12.09375 -14 C 12.257812 -14 12.34375 -13.941406 12.34375 -13.828125 C 12.34375 -13.765625 12.3125 -13.691406 12.25 -13.609375 L 8.328125 -7.65625 C 8.265625 -7.5625 8.234375 -7.484375 8.234375 -7.421875 C 8.234375 -7.367188 8.265625 -7.28125 8.328125 -7.15625 Z M 12.640625 -0.625 "/></g></g></g><g fill="#ffffff" fill-opacity="1"><g transform="translate(77.742699, 20.62747)"><g/></g></g><g fill="#c64fff" fill-opacity="1"><g transform="translate(81.689345, 20.62747)"><g><path d="M 12.6875 -0.515625 C 12.707031 -0.429688 12.71875 -0.375 12.71875 -0.34375 C 12.71875 -0.238281 12.6875 -0.15625 12.625 -0.09375 C 12.5625 -0.03125 12.488281 0 12.40625 0 L 9.625 0 C 9.414062 0 9.28125 -0.113281 9.21875 -0.34375 L 7.171875 -5.625 C 7.128906 -5.726562 7.070312 -5.796875 7 -5.828125 C 6.925781 -5.867188 6.804688 -5.890625 6.640625 -5.890625 L 4.84375 -5.890625 C 4.769531 -5.890625 4.710938 -5.863281 4.671875 -5.8125 C 4.640625 -5.769531 4.625 -5.726562 4.625 -5.6875 L 4.625 -0.453125 C 4.625 -0.285156 4.582031 -0.164062 4.5 -0.09375 C 4.414062 -0.03125 4.285156 0 4.109375 0 L 1.71875 0 C 1.5625 0 1.457031 -0.03125 1.40625 -0.09375 C 1.351562 -0.15625 1.328125 -0.25 1.328125 -0.375 L 1.328125 -13.640625 C 1.328125 -13.878906 1.425781 -14 1.625 -14 L 7.515625 -14 C 9.210938 -14 10.523438 -13.664062 11.453125 -13 C 12.390625 -12.332031 12.859375 -11.382812 12.859375 -10.15625 C 12.859375 -9.238281 12.609375 -8.453125 12.109375 -7.796875 C 11.617188 -7.148438 11.003906 -6.695312 10.265625 -6.4375 C 10.160156 -6.394531 10.132812 -6.300781 10.1875 -6.15625 Z M 7.203125 -8.109375 C 7.941406 -8.109375 8.5 -8.265625 8.875 -8.578125 C 9.25 -8.890625 9.4375 -9.335938 9.4375 -9.921875 C 9.4375 -10.523438 9.242188 -10.988281 8.859375 -11.3125 C 8.472656 -11.632812 7.953125 -11.796875 7.296875 -11.796875 L 4.984375 -11.796875 C 4.847656 -11.796875 4.753906 -11.773438 4.703125 -11.734375 C 4.648438 -11.691406 4.625 -11.613281 4.625 -11.5 L 4.625 -8.4375 C 4.625 -8.320312 4.640625 -8.238281 4.671875 -8.1875 C 4.710938 -8.132812 4.785156 -8.109375 4.890625 -8.109375 Z M 7.203125 -8.109375 "/></g></g></g><g fill="#ffffff" fill-opacity="1"><g transform="translate(95.32172, 20.62747)"><g><path d="M 7.328125 0.1875 C 6.003906 0.1875 4.851562 -0.0976562 3.875 -0.671875 C 2.90625 -1.242188 2.15625 -2.0625 1.625 -3.125 C 1.101562 -4.195312 0.84375 -5.472656 0.84375 -6.953125 C 0.84375 -8.429688 1.109375 -9.710938 1.640625 -10.796875 C 2.171875 -11.890625 2.921875 -12.726562 3.890625 -13.3125 C 4.867188 -13.894531 6.015625 -14.1875 7.328125 -14.1875 C 8.617188 -14.1875 9.75 -13.894531 10.71875 -13.3125 C 11.6875 -12.726562 12.4375 -11.890625 12.96875 -10.796875 C 13.5 -9.710938 13.765625 -8.4375 13.765625 -6.96875 C 13.765625 -5.507812 13.5 -4.238281 12.96875 -3.15625 C 12.445312 -2.082031 11.703125 -1.253906 10.734375 -0.671875 C 9.765625 -0.0976562 8.628906 0.1875 7.328125 0.1875 Z M 7.328125 -2.140625 C 8.367188 -2.140625 9.125 -2.515625 9.59375 -3.265625 C 10.070312 -4.015625 10.3125 -5.234375 10.3125 -6.921875 C 10.3125 -8.648438 10.066406 -9.910156 9.578125 -10.703125 C 9.097656 -11.492188 8.347656 -11.890625 7.328125 -11.890625 C 6.273438 -11.890625 5.503906 -11.492188 5.015625 -10.703125 C 4.535156 -9.910156 4.296875 -8.648438 4.296875 -6.921875 C 4.296875 -5.234375 4.535156 -4.015625 5.015625 -3.265625 C 5.492188 -2.515625 6.265625 -2.140625 7.328125 -2.140625 Z M 7.328125 -2.140625 "/></g></g></g><g fill="#ffffff" fill-opacity="1"><g transform="translate(109.92798, 20.62747)"><g><path d="M 12.4375 -5.1875 C 12.4375 -3.28125 11.953125 -1.90625 10.984375 -1.0625 C 10.015625 -0.226562 8.617188 0.1875 6.796875 0.1875 C 4.796875 0.1875 3.351562 -0.28125 2.46875 -1.21875 C 1.59375 -2.164062 1.15625 -3.601562 1.15625 -5.53125 L 1.15625 -13.625 C 1.15625 -13.738281 1.179688 -13.828125 1.234375 -13.890625 C 1.296875 -13.960938 1.367188 -14 1.453125 -14 L 4.171875 -14 C 4.359375 -14 4.453125 -13.890625 4.453125 -13.671875 L 4.453125 -5.109375 C 4.453125 -4.097656 4.664062 -3.351562 5.09375 -2.875 C 5.53125 -2.40625 6.179688 -2.171875 7.046875 -2.171875 C 8.828125 -2.171875 9.71875 -3.171875 9.71875 -5.171875 L 9.71875 -13.640625 C 9.71875 -13.878906 9.8125 -14 10 -14 L 12.15625 -14 C 12.34375 -14 12.4375 -13.890625 12.4375 -13.671875 Z M 12.4375 -5.1875 "/></g></g></g><g fill="#ffffff" fill-opacity="1"><g transform="translate(123.53407, 20.62747)"><g><path d="M 9.359375 -10.703125 C 9.035156 -11.066406 8.660156 -11.351562 8.234375 -11.5625 C 7.816406 -11.769531 7.269531 -11.875 6.59375 -11.875 C 5.820312 -11.875 5.234375 -11.734375 4.828125 -11.453125 C 4.429688 -11.179688 4.234375 -10.816406 4.234375 -10.359375 C 4.234375 -9.703125 4.738281 -9.222656 5.75 -8.921875 L 8.734375 -8.078125 C 9.859375 -7.765625 10.691406 -7.265625 11.234375 -6.578125 C 11.785156 -5.898438 12.0625 -5.085938 12.0625 -4.140625 C 12.0625 -3.253906 11.832031 -2.488281 11.375 -1.84375 C 10.925781 -1.195312 10.273438 -0.695312 9.421875 -0.34375 C 8.578125 0.0078125 7.582031 0.1875 6.4375 0.1875 C 5.15625 0.1875 4 -0.0234375 2.96875 -0.453125 C 1.9375 -0.890625 1.179688 -1.488281 0.703125 -2.25 C 0.648438 -2.332031 0.625 -2.410156 0.625 -2.484375 C 0.625 -2.585938 0.6875 -2.695312 0.8125 -2.8125 L 2.265625 -3.8125 C 2.390625 -3.882812 2.503906 -3.921875 2.609375 -3.921875 C 2.722656 -3.921875 2.816406 -3.875 2.890625 -3.78125 C 3.359375 -3.175781 3.828125 -2.742188 4.296875 -2.484375 C 4.773438 -2.234375 5.410156 -2.109375 6.203125 -2.109375 C 7.046875 -2.109375 7.707031 -2.238281 8.1875 -2.5 C 8.664062 -2.769531 8.90625 -3.171875 8.90625 -3.703125 C 8.90625 -4.035156 8.785156 -4.320312 8.546875 -4.5625 C 8.304688 -4.800781 7.90625 -5.007812 7.34375 -5.1875 L 4.5 -6 C 3.414062 -6.300781 2.578125 -6.804688 1.984375 -7.515625 C 1.390625 -8.234375 1.09375 -9.046875 1.09375 -9.953125 C 1.09375 -10.753906 1.316406 -11.472656 1.765625 -12.109375 C 2.210938 -12.753906 2.84375 -13.257812 3.65625 -13.625 C 4.476562 -14 5.425781 -14.1875 6.5 -14.1875 C 7.550781 -14.1875 8.515625 -14.007812 9.390625 -13.65625 C 10.273438 -13.300781 10.953125 -12.820312 11.421875 -12.21875 C 11.492188 -12.113281 11.53125 -12.023438 11.53125 -11.953125 C 11.53125 -11.867188 11.492188 -11.796875 11.421875 -11.734375 L 9.828125 -10.5625 C 9.753906 -10.519531 9.695312 -10.5 9.65625 -10.5 C 9.59375 -10.5 9.492188 -10.566406 9.359375 -10.703125 Z M 9.359375 -10.703125 "/></g></g></g><g fill="#ffffff" fill-opacity="1"><g transform="translate(136.30984, 20.62747)"><g><path d="M 9.359375 -10.703125 C 9.035156 -11.066406 8.660156 -11.351562 8.234375 -11.5625 C 7.816406 -11.769531 7.269531 -11.875 6.59375 -11.875 C 5.820312 -11.875 5.234375 -11.734375 4.828125 -11.453125 C 4.429688 -11.179688 4.234375 -10.816406 4.234375 -10.359375 C 4.234375 -9.703125 4.738281 -9.222656 5.75 -8.921875 L 8.734375 -8.078125 C 9.859375 -7.765625 10.691406 -7.265625 11.234375 -6.578125 C 11.785156 -5.898438 12.0625 -5.085938 12.0625 -4.140625 C 12.0625 -3.253906 11.832031 -2.488281 11.375 -1.84375 C 10.925781 -1.195312 10.273438 -0.695312 9.421875 -0.34375 C 8.578125 0.0078125 7.582031 0.1875 6.4375 0.1875 C 5.15625 0.1875 4 -0.0234375 2.96875 -0.453125 C 1.9375 -0.890625 1.179688 -1.488281 0.703125 -2.25 C 0.648438 -2.332031 0.625 -2.410156 0.625 -2.484375 C 0.625 -2.585938 0.6875 -2.695312 0.8125 -2.8125 L 2.265625 -3.8125 C 2.390625 -3.882812 2.503906 -3.921875 2.609375 -3.921875 C 2.722656 -3.921875 2.816406 -3.875 2.890625 -3.78125 C 3.359375 -3.175781 3.828125 -2.742188 4.296875 -2.484375 C 4.773438 -2.234375 5.410156 -2.109375 6.203125 -2.109375 C 7.046875 -2.109375 7.707031 -2.238281 8.1875 -2.5 C 8.664062 -2.769531 8.90625 -3.171875 8.90625 -3.703125 C 8.90625 -4.035156 8.785156 -4.320312 8.546875 -4.5625 C 8.304688 -4.800781 7.90625 -5.007812 7.34375 -5.1875 L 4.5 -6 C 3.414062 -6.300781 2.578125 -6.804688 1.984375 -7.515625 C 1.390625 -8.234375 1.09375 -9.046875 1.09375 -9.953125 C 1.09375 -10.753906 1.316406 -11.472656 1.765625 -12.109375 C 2.210938 -12.753906 2.84375 -13.257812 3.65625 -13.625 C 4.476562 -14 5.425781 -14.1875 6.5 -14.1875 C 7.550781 -14.1875 8.515625 -14.007812 9.390625 -13.65625 C 10.273438 -13.300781 10.953125 -12.820312 11.421875 -12.21875 C 11.492188 -12.113281 11.53125 -12.023438 11.53125 -11.953125 C 11.53125 -11.867188 11.492188 -11.796875 11.421875 -11.734375 L 9.828125 -10.5625 C 9.753906 -10.519531 9.695312 -10.5 9.65625 -10.5 C 9.59375 -10.5 9.492188 -10.566406 9.359375 -10.703125 Z M 9.359375 -10.703125 "/></g></g></g><g fill="#ffffff" fill-opacity="1"><g transform="translate(149.08561, 20.62747)"><g><path d="M 1.328125 -13.640625 C 1.328125 -13.878906 1.425781 -14 1.625 -14 L 11.140625 -14 C 11.328125 -14 11.421875 -13.894531 11.421875 -13.6875 L 11.40625 -11.984375 C 11.40625 -11.722656 11.269531 -11.59375 11 -11.59375 L 4.984375 -11.59375 C 4.742188 -11.59375 4.625 -11.488281 4.625 -11.28125 L 4.625 -8.546875 C 4.625 -8.335938 4.71875 -8.234375 4.90625 -8.234375 L 8.90625 -8.234375 C 9.125 -8.234375 9.234375 -8.128906 9.234375 -7.921875 L 9.234375 -6.109375 C 9.234375 -5.929688 9.128906 -5.84375 8.921875 -5.84375 L 4.890625 -5.84375 C 4.710938 -5.84375 4.625 -5.769531 4.625 -5.625 L 4.625 -2.65625 C 4.625 -2.570312 4.640625 -2.507812 4.671875 -2.46875 C 4.703125 -2.4375 4.753906 -2.421875 4.828125 -2.421875 L 11.28125 -2.421875 C 11.507812 -2.421875 11.625 -2.328125 11.625 -2.140625 L 11.625 -0.34375 C 11.625 -0.113281 11.5 0 11.25 0 L 1.734375 0 C 1.585938 0 1.484375 -0.03125 1.421875 -0.09375 C 1.359375 -0.15625 1.328125 -0.253906 1.328125 -0.390625 Z M 1.328125 -13.640625 "/></g></g></g><g fill="#ffffff" fill-opacity="1"><g transform="translate(161.434663, 20.62747)"><g/></g></g><g fill="#c64fff" fill-opacity="1"><g transform="translate(165.381186, 20.62747)"><g><path d="M 12.515625 -9.734375 C 12.515625 -8.390625 12.050781 -7.351562 11.125 -6.625 C 10.195312 -5.894531 8.96875 -5.53125 7.4375 -5.53125 L 4.46875 -5.53125 C 4.34375 -5.53125 4.28125 -5.46875 4.28125 -5.34375 L 4.28125 -0.375 C 4.28125 -0.125 4.144531 0 3.875 0 L 1.828125 0 C 1.597656 0 1.484375 -0.113281 1.484375 -0.34375 L 1.484375 -13.6875 C 1.484375 -13.894531 1.582031 -14 1.78125 -14 L 7.109375 -14 C 8.710938 -14 10.015625 -13.640625 11.015625 -12.921875 C 12.015625 -12.210938 12.515625 -11.148438 12.515625 -9.734375 Z M 9.640625 -9.796875 C 9.640625 -10.535156 9.398438 -11.082031 8.921875 -11.4375 C 8.441406 -11.800781 7.789062 -11.984375 6.96875 -11.984375 L 4.609375 -11.984375 C 4.390625 -11.984375 4.28125 -11.882812 4.28125 -11.6875 L 4.28125 -7.875 C 4.28125 -7.757812 4.296875 -7.675781 4.328125 -7.625 C 4.367188 -7.570312 4.4375 -7.546875 4.53125 -7.546875 L 7.078125 -7.546875 C 7.867188 -7.546875 8.492188 -7.738281 8.953125 -8.125 C 9.410156 -8.507812 9.640625 -9.066406 9.640625 -9.796875 Z M 9.640625 -9.796875 "/></g></g></g><g fill="#ffffff" fill-opacity="1"><g transform="translate(178.710874, 20.62747)"><g><path d="M 12.375 -0.453125 C 12.40625 -0.410156 12.421875 -0.351562 12.421875 -0.28125 C 12.421875 -0.207031 12.394531 -0.140625 12.34375 -0.078125 C 12.289062 -0.0234375 12.222656 0 12.140625 0 L 9.828125 0 C 9.734375 0 9.65625 -0.0195312 9.59375 -0.0625 C 9.539062 -0.101562 9.492188 -0.179688 9.453125 -0.296875 L 7.28125 -5.8125 C 7.25 -5.90625 7.191406 -5.96875 7.109375 -6 C 7.035156 -6.039062 6.925781 -6.0625 6.78125 -6.0625 L 4.515625 -6.0625 C 4.359375 -6.0625 4.28125 -5.988281 4.28125 -5.84375 L 4.28125 -0.390625 C 4.28125 -0.253906 4.242188 -0.15625 4.171875 -0.09375 C 4.109375 -0.03125 4 0 3.84375 0 L 1.84375 0 C 1.707031 0 1.613281 -0.0234375 1.5625 -0.078125 C 1.507812 -0.140625 1.484375 -0.226562 1.484375 -0.34375 L 1.484375 -13.6875 C 1.484375 -13.894531 1.582031 -14 1.78125 -14 L 7.453125 -14 C 9.078125 -14 10.335938 -13.671875 11.234375 -13.015625 C 12.128906 -12.367188 12.578125 -11.441406 12.578125 -10.234375 C 12.578125 -9.285156 12.320312 -8.492188 11.8125 -7.859375 C 11.3125 -7.234375 10.679688 -6.789062 9.921875 -6.53125 C 9.828125 -6.488281 9.804688 -6.40625 9.859375 -6.28125 Z M 7.0625 -7.984375 C 8.8125 -7.984375 9.6875 -8.660156 9.6875 -10.015625 C 9.6875 -10.703125 9.472656 -11.21875 9.046875 -11.5625 C 8.628906 -11.914062 8.039062 -12.09375 7.28125 -12.09375 L 4.625 -12.09375 C 4.5 -12.09375 4.410156 -12.070312 4.359375 -12.03125 C 4.304688 -12 4.28125 -11.929688 4.28125 -11.828125 L 4.28125 -8.265625 C 4.28125 -8.160156 4.296875 -8.085938 4.328125 -8.046875 C 4.367188 -8.003906 4.4375 -7.984375 4.53125 -7.984375 Z M 7.0625 -7.984375 "/></g></g></g><g fill="#ffffff" fill-opacity="1"><g transform="translate(192.165998, 20.62747)"><g><path d="M 1.484375 -13.6875 C 1.484375 -13.894531 1.582031 -14 1.78125 -14 L 10.921875 -14 C 11.085938 -14 11.171875 -13.90625 11.171875 -13.71875 L 11.171875 -12.28125 C 11.171875 -12.039062 11.054688 -11.921875 10.828125 -11.921875 L 4.609375 -11.921875 C 4.390625 -11.921875 4.28125 -11.835938 4.28125 -11.671875 L 4.28125 -8.359375 C 4.28125 -8.171875 4.367188 -8.078125 4.546875 -8.078125 L 8.859375 -8.078125 C 9.046875 -8.078125 9.140625 -7.984375 9.140625 -7.796875 L 9.140625 -6.265625 C 9.140625 -6.117188 9.050781 -6.046875 8.875 -6.046875 L 4.53125 -6.046875 C 4.363281 -6.046875 4.28125 -5.96875 4.28125 -5.8125 L 4.28125 -2.296875 C 4.28125 -2.210938 4.296875 -2.15625 4.328125 -2.125 C 4.359375 -2.09375 4.414062 -2.078125 4.5 -2.078125 L 11.09375 -2.078125 C 11.207031 -2.078125 11.285156 -2.054688 11.328125 -2.015625 C 11.378906 -1.984375 11.40625 -1.914062 11.40625 -1.8125 L 11.40625 -0.28125 C 11.40625 -0.207031 11.378906 -0.140625 11.328125 -0.078125 C 11.273438 -0.0234375 11.191406 0 11.078125 0 L 1.84375 0 C 1.71875 0 1.625 -0.0234375 1.5625 -0.078125 C 1.507812 -0.128906 1.484375 -0.21875 1.484375 -0.34375 Z M 1.484375 -13.6875 "/></g></g></g><g fill="#ffffff" fill-opacity="1"><g transform="translate(204.337891, 20.62747)"><g><path d="M 7.1875 -14.1875 C 8.101562 -14.1875 8.953125 -14.007812 9.734375 -13.65625 C 10.523438 -13.300781 11.175781 -12.8125 11.6875 -12.1875 C 12.195312 -11.570312 12.515625 -10.890625 12.640625 -10.140625 C 12.660156 -10.078125 12.671875 -10 12.671875 -9.90625 C 12.671875 -9.832031 12.65625 -9.78125 12.625 -9.75 C 12.59375 -9.726562 12.535156 -9.710938 12.453125 -9.703125 L 10.3125 -9.546875 C 10.21875 -9.546875 10.15625 -9.5625 10.125 -9.59375 C 10.09375 -9.625 10.066406 -9.695312 10.046875 -9.8125 C 9.890625 -10.539062 9.570312 -11.125 9.09375 -11.5625 C 8.613281 -12 8.003906 -12.21875 7.265625 -12.21875 C 5.015625 -12.21875 3.890625 -10.492188 3.890625 -7.046875 C 3.890625 -5.296875 4.171875 -4 4.734375 -3.15625 C 5.304688 -2.320312 6.171875 -1.90625 7.328125 -1.90625 C 8.128906 -1.90625 8.800781 -2.101562 9.34375 -2.5 C 9.894531 -2.894531 10.34375 -3.535156 10.6875 -4.421875 C 10.71875 -4.515625 10.828125 -4.546875 11.015625 -4.515625 L 12.625 -4.171875 C 12.6875 -4.148438 12.734375 -4.109375 12.765625 -4.046875 C 12.804688 -3.992188 12.816406 -3.894531 12.796875 -3.75 C 12.648438 -3.1875 12.34375 -2.601562 11.875 -2 C 11.414062 -1.394531 10.789062 -0.878906 10 -0.453125 C 9.207031 -0.0234375 8.273438 0.1875 7.203125 0.1875 C 5.929688 0.1875 4.820312 -0.109375 3.875 -0.703125 C 2.9375 -1.304688 2.21875 -2.15625 1.71875 -3.25 C 1.21875 -4.351562 0.96875 -5.628906 0.96875 -7.078125 C 0.96875 -8.535156 1.21875 -9.796875 1.71875 -10.859375 C 2.21875 -11.929688 2.9375 -12.753906 3.875 -13.328125 C 4.8125 -13.898438 5.914062 -14.1875 7.1875 -14.1875 Z M 7.1875 -14.1875 "/></g></g></g><g fill="#ffffff" fill-opacity="1"><g transform="translate(217.906248, 20.62747)"><g><path d="M 4.015625 -14 C 4.191406 -14 4.28125 -13.898438 4.28125 -13.703125 L 4.28125 -0.421875 C 4.28125 -0.265625 4.242188 -0.15625 4.171875 -0.09375 C 4.109375 -0.03125 3.992188 0 3.828125 0 L 1.875 0 C 1.71875 0 1.613281 -0.0234375 1.5625 -0.078125 C 1.507812 -0.128906 1.484375 -0.21875 1.484375 -0.34375 L 1.484375 -13.6875 C 1.484375 -13.894531 1.582031 -14 1.78125 -14 Z M 4.015625 -14 "/></g></g></g><g fill="#ffffff" fill-opacity="1"><g transform="translate(223.680815, 20.62747)"><g><path d="M 9.375 -10.953125 C 9.039062 -11.335938 8.644531 -11.640625 8.1875 -11.859375 C 7.738281 -12.078125 7.160156 -12.1875 6.453125 -12.1875 C 5.617188 -12.1875 4.976562 -12.023438 4.53125 -11.703125 C 4.09375 -11.390625 3.875 -10.957031 3.875 -10.40625 C 3.875 -9.632812 4.429688 -9.070312 5.546875 -8.71875 L 8.453125 -7.859375 C 10.628906 -7.203125 11.71875 -5.910156 11.71875 -3.984375 C 11.71875 -3.140625 11.5 -2.398438 11.0625 -1.765625 C 10.625 -1.140625 10 -0.65625 9.1875 -0.3125 C 8.375 0.0195312 7.410156 0.1875 6.296875 0.1875 C 5.066406 0.1875 3.96875 -0.0195312 3 -0.4375 C 2.03125 -0.863281 1.296875 -1.460938 0.796875 -2.234375 C 0.742188 -2.359375 0.71875 -2.429688 0.71875 -2.453125 C 0.71875 -2.554688 0.78125 -2.648438 0.90625 -2.734375 L 2.09375 -3.5625 C 2.226562 -3.644531 2.335938 -3.6875 2.421875 -3.6875 C 2.515625 -3.6875 2.59375 -3.640625 2.65625 -3.546875 C 3.144531 -2.898438 3.640625 -2.445312 4.140625 -2.1875 C 4.640625 -1.925781 5.304688 -1.796875 6.140625 -1.796875 C 7.046875 -1.796875 7.753906 -1.945312 8.265625 -2.25 C 8.785156 -2.550781 9.046875 -3.007812 9.046875 -3.625 C 9.046875 -4.03125 8.914062 -4.367188 8.65625 -4.640625 C 8.394531 -4.921875 7.9375 -5.164062 7.28125 -5.375 L 4.4375 -6.25 C 3.394531 -6.5625 2.59375 -7.0625 2.03125 -7.75 C 1.476562 -8.4375 1.203125 -9.207031 1.203125 -10.0625 C 1.203125 -10.863281 1.414062 -11.578125 1.84375 -12.203125 C 2.269531 -12.828125 2.875 -13.3125 3.65625 -13.65625 C 4.445312 -14.007812 5.363281 -14.1875 6.40625 -14.1875 C 7.394531 -14.1875 8.304688 -14.015625 9.140625 -13.671875 C 9.984375 -13.328125 10.648438 -12.851562 11.140625 -12.25 C 11.210938 -12.144531 11.25 -12.0625 11.25 -12 C 11.25 -11.9375 11.210938 -11.875 11.140625 -11.8125 L 9.796875 -10.8125 C 9.742188 -10.78125 9.691406 -10.765625 9.640625 -10.765625 C 9.578125 -10.765625 9.488281 -10.828125 9.375 -10.953125 Z M 9.375 -10.953125 "/></g></g></g><g fill="#ffffff" fill-opacity="1"><g transform="translate(236.230129, 20.62747)"><g><path d="M 4.015625 -14 C 4.191406 -14 4.28125 -13.898438 4.28125 -13.703125 L 4.28125 -0.421875 C 4.28125 -0.265625 4.242188 -0.15625 4.171875 -0.09375 C 4.109375 -0.03125 3.992188 0 3.828125 0 L 1.875 0 C 1.71875 0 1.613281 -0.0234375 1.5625 -0.078125 C 1.507812 -0.128906 1.484375 -0.21875 1.484375 -0.34375 L 1.484375 -13.6875 C 1.484375 -13.894531 1.582031 -14 1.78125 -14 Z M 4.015625 -14 "/></g></g></g><g fill="#ffffff" fill-opacity="1"><g transform="translate(242.004696, 20.62747)"><g><path d="M 7.28125 0.1875 C 5.988281 0.1875 4.867188 -0.09375 3.921875 -0.65625 C 2.984375 -1.226562 2.257812 -2.050781 1.75 -3.125 C 1.238281 -4.195312 0.984375 -5.472656 0.984375 -6.953125 C 0.984375 -8.441406 1.238281 -9.726562 1.75 -10.8125 C 2.269531 -11.90625 3 -12.738281 3.9375 -13.3125 C 4.882812 -13.894531 6 -14.1875 7.28125 -14.1875 C 8.550781 -14.1875 9.65625 -13.894531 10.59375 -13.3125 C 11.539062 -12.738281 12.273438 -11.90625 12.796875 -10.8125 C 13.316406 -9.726562 13.578125 -8.445312 13.578125 -6.96875 C 13.578125 -5.488281 13.320312 -4.210938 12.8125 -3.140625 C 12.300781 -2.066406 11.570312 -1.242188 10.625 -0.671875 C 9.6875 -0.0976562 8.570312 0.1875 7.28125 0.1875 Z M 7.296875 -1.8125 C 8.441406 -1.8125 9.285156 -2.21875 9.828125 -3.03125 C 10.367188 -3.851562 10.640625 -5.148438 10.640625 -6.921875 C 10.640625 -8.734375 10.363281 -10.066406 9.8125 -10.921875 C 9.269531 -11.785156 8.425781 -12.21875 7.28125 -12.21875 C 6.132812 -12.21875 5.28125 -11.785156 4.71875 -10.921875 C 4.164062 -10.066406 3.890625 -8.734375 3.890625 -6.921875 C 3.890625 -5.148438 4.164062 -3.851562 4.71875 -3.03125 C 5.269531 -2.21875 6.128906 -1.8125 7.296875 -1.8125 Z M 7.296875 -1.8125 "/></g></g></g><g fill="#ffffff" fill-opacity="1"><g transform="translate(256.535479, 20.62747)"><g><path d="M 12.59375 -14 C 12.675781 -14 12.734375 -13.976562 12.765625 -13.9375 C 12.796875 -13.90625 12.8125 -13.835938 12.8125 -13.734375 L 12.8125 -0.28125 C 12.8125 -0.09375 12.707031 0 12.5 0 L 10.921875 0 C 10.828125 0 10.75 -0.0078125 10.6875 -0.03125 C 10.625 -0.0625 10.550781 -0.117188 10.46875 -0.203125 L 4.015625 -9.375 C 3.960938 -9.457031 3.914062 -9.492188 3.875 -9.484375 C 3.832031 -9.472656 3.8125 -9.429688 3.8125 -9.359375 L 3.8125 -0.25 C 3.8125 -0.0820312 3.703125 0 3.484375 0 L 1.828125 0 C 1.597656 0 1.484375 -0.0976562 1.484375 -0.296875 L 1.484375 -13.6875 C 1.484375 -13.894531 1.585938 -14 1.796875 -14 L 3.6875 -14 C 3.8125 -14 3.90625 -13.984375 3.96875 -13.953125 C 4.03125 -13.921875 4.097656 -13.859375 4.171875 -13.765625 L 10.25 -5 C 10.300781 -4.914062 10.359375 -4.875 10.421875 -4.875 C 10.492188 -4.875 10.53125 -4.9375 10.53125 -5.0625 L 10.53125 -13.703125 C 10.53125 -13.898438 10.628906 -14 10.828125 -14 Z M 12.59375 -14 "/></g></g></g><g fill="#c64fff" fill-opacity="1"><g transform="translate(85.356465, 89.421919)"><g><path d="M 24.84375 -28.90625 C 25.601562 -28.90625 26.207031 -28.664062 26.65625 -28.1875 C 27.101562 -27.71875 27.328125 -27.085938 27.328125 -26.296875 L 27.328125 -2.40625 C 27.328125 -1.613281 27.09375 -0.972656 26.625 -0.484375 C 26.164062 0.00390625 25.570312 0.25 24.84375 0.25 C 23.96875 0.25 23.300781 -0.0625 22.84375 -0.6875 L 7.984375 -20.03125 L 7.984375 -2.40625 C 7.984375 -1.613281 7.765625 -0.972656 7.328125 -0.484375 C 6.890625 0.00390625 6.289062 0.25 5.53125 0.25 C 4.769531 0.25 4.171875 0.00390625 3.734375 -0.484375 C 3.304688 -0.972656 3.09375 -1.613281 3.09375 -2.40625 L 3.09375 -26.296875 C 3.09375 -27.085938 3.320312 -27.71875 3.78125 -28.1875 C 4.25 -28.664062 4.863281 -28.90625 5.625 -28.90625 C 6.457031 -28.90625 7.109375 -28.59375 7.578125 -27.96875 L 22.390625 -8.71875 L 22.390625 -26.296875 C 22.390625 -27.085938 22.613281 -27.71875 23.0625 -28.1875 C 23.507812 -28.664062 24.101562 -28.90625 24.84375 -28.90625 Z M 24.84375 -28.90625 "/></g></g></g><g fill="#c64fff" fill-opacity="1"><g transform="translate(115.776182, 89.421919)"><g><path d="M 18.40625 -5.453125 C 18.863281 -5.453125 19.234375 -5.273438 19.515625 -4.921875 C 19.804688 -4.566406 19.953125 -4.09375 19.953125 -3.5 C 19.953125 -2.65625 19.453125 -1.953125 18.453125 -1.390625 C 17.523438 -0.867188 16.476562 -0.453125 15.3125 -0.140625 C 14.144531 0.171875 13.03125 0.328125 11.96875 0.328125 C 8.769531 0.328125 6.234375 -0.59375 4.359375 -2.4375 C 2.484375 -4.289062 1.546875 -6.816406 1.546875 -10.015625 C 1.546875 -12.054688 1.953125 -13.863281 2.765625 -15.4375 C 3.578125 -17.007812 4.722656 -18.226562 6.203125 -19.09375 C 7.679688 -19.96875 9.359375 -20.40625 11.234375 -20.40625 C 13.023438 -20.40625 14.585938 -20.007812 15.921875 -19.21875 C 17.253906 -18.425781 18.285156 -17.3125 19.015625 -15.875 C 19.742188 -14.4375 20.109375 -12.742188 20.109375 -10.796875 C 20.109375 -9.628906 19.59375 -9.046875 18.5625 -9.046875 L 6.5625 -9.046875 C 6.71875 -7.171875 7.242188 -5.789062 8.140625 -4.90625 C 9.035156 -4.019531 10.335938 -3.578125 12.046875 -3.578125 C 12.921875 -3.578125 13.6875 -3.6875 14.34375 -3.90625 C 15.007812 -4.125 15.765625 -4.425781 16.609375 -4.8125 C 17.421875 -5.238281 18.019531 -5.453125 18.40625 -5.453125 Z M 11.359375 -16.8125 C 9.972656 -16.8125 8.863281 -16.375 8.03125 -15.5 C 7.207031 -14.632812 6.71875 -13.390625 6.5625 -11.765625 L 15.765625 -11.765625 C 15.703125 -13.421875 15.289062 -14.675781 14.53125 -15.53125 C 13.769531 -16.382812 12.710938 -16.8125 11.359375 -16.8125 Z M 11.359375 -16.8125 "/></g></g></g><g fill="#c64fff" fill-opacity="1"><g transform="translate(137.399835, 89.421919)"><g><path d="M 19.90625 -3.75 C 20.394531 -3.257812 20.640625 -2.703125 20.640625 -2.078125 C 20.640625 -1.484375 20.410156 -0.945312 19.953125 -0.46875 C 19.492188 0.0078125 18.953125 0.25 18.328125 0.25 C 17.648438 0.25 17.066406 -0.0351562 16.578125 -0.609375 L 10.828125 -6.96875 L 5.09375 -0.609375 C 4.570312 -0.0664062 3.988281 0.203125 3.34375 0.203125 C 2.738281 0.203125 2.207031 -0.0234375 1.75 -0.484375 C 1.289062 -0.953125 1.0625 -1.484375 1.0625 -2.078125 C 1.0625 -2.703125 1.304688 -3.257812 1.796875 -3.75 L 7.734375 -10.21875 L 2.125 -16.328125 C 1.632812 -16.816406 1.390625 -17.375 1.390625 -18 C 1.390625 -18.625 1.617188 -19.160156 2.078125 -19.609375 C 2.535156 -20.054688 3.066406 -20.28125 3.671875 -20.28125 C 4.316406 -20.28125 4.898438 -20.007812 5.421875 -19.46875 L 10.828125 -13.515625 L 16.25 -19.46875 C 16.757812 -20.007812 17.34375 -20.28125 18 -20.28125 C 18.625 -20.28125 19.160156 -20.054688 19.609375 -19.609375 C 20.054688 -19.160156 20.28125 -18.625 20.28125 -18 C 20.28125 -17.375 20.035156 -16.816406 19.546875 -16.328125 L 13.921875 -10.21875 Z M 19.90625 -3.75 "/></g></g></g><g fill="#c64fff" fill-opacity="1"><g transform="translate(159.064211, 89.421919)"><g><path d="M 18.359375 -20.3125 C 19.148438 -20.3125 19.773438 -20.09375 20.234375 -19.65625 C 20.691406 -19.226562 20.921875 -18.648438 20.921875 -17.921875 L 20.921875 -2.125 C 20.921875 -1.414062 20.679688 -0.84375 20.203125 -0.40625 C 19.734375 0.03125 19.117188 0.25 18.359375 0.25 C 17.628906 0.25 17.046875 0.046875 16.609375 -0.359375 C 16.179688 -0.773438 15.96875 -1.332031 15.96875 -2.03125 L 15.96875 -3.046875 C 15.34375 -1.960938 14.5 -1.128906 13.4375 -0.546875 C 12.375 0.0351562 11.179688 0.328125 9.859375 0.328125 C 4.972656 0.328125 2.53125 -2.414062 2.53125 -7.90625 L 2.53125 -17.921875 C 2.53125 -18.648438 2.757812 -19.226562 3.21875 -19.65625 C 3.675781 -20.09375 4.285156 -20.3125 5.046875 -20.3125 C 5.835938 -20.3125 6.460938 -20.09375 6.921875 -19.65625 C 7.378906 -19.226562 7.609375 -18.648438 7.609375 -17.921875 L 7.609375 -7.859375 C 7.609375 -6.441406 7.894531 -5.394531 8.46875 -4.71875 C 9.039062 -4.039062 9.9375 -3.703125 11.15625 -3.703125 C 12.570312 -3.703125 13.707031 -4.171875 14.5625 -5.109375 C 15.414062 -6.046875 15.84375 -7.289062 15.84375 -8.84375 L 15.84375 -17.921875 C 15.84375 -18.648438 16.070312 -19.226562 16.53125 -19.65625 C 16.988281 -20.09375 17.597656 -20.3125 18.359375 -20.3125 Z M 18.359375 -20.3125 "/></g></g></g><g fill="#c64fff" fill-opacity="1"><g transform="translate(182.642547, 89.421919)"><g><path d="M 9.859375 0.328125 C 6.898438 0.328125 4.507812 -0.253906 2.6875 -1.421875 C 1.820312 -1.941406 1.390625 -2.675781 1.390625 -3.625 C 1.390625 -4.164062 1.535156 -4.601562 1.828125 -4.9375 C 2.128906 -5.28125 2.5 -5.453125 2.9375 -5.453125 C 3.394531 -5.453125 4.03125 -5.238281 4.84375 -4.8125 C 5.71875 -4.394531 6.515625 -4.078125 7.234375 -3.859375 C 7.953125 -3.648438 8.863281 -3.546875 9.96875 -3.546875 C 11.113281 -3.546875 12.003906 -3.734375 12.640625 -4.109375 C 13.273438 -4.492188 13.59375 -5.023438 13.59375 -5.703125 C 13.59375 -6.160156 13.460938 -6.523438 13.203125 -6.796875 C 12.953125 -7.066406 12.492188 -7.316406 11.828125 -7.546875 C 11.160156 -7.785156 10.148438 -8.050781 8.796875 -8.34375 C 6.378906 -8.832031 4.644531 -9.523438 3.59375 -10.421875 C 2.550781 -11.316406 2.03125 -12.550781 2.03125 -14.125 C 2.03125 -15.320312 2.382812 -16.398438 3.09375 -17.359375 C 3.800781 -18.328125 4.769531 -19.078125 6 -19.609375 C 7.238281 -20.140625 8.644531 -20.40625 10.21875 -20.40625 C 11.363281 -20.40625 12.460938 -20.257812 13.515625 -19.96875 C 14.578125 -19.6875 15.53125 -19.273438 16.375 -18.734375 C 17.238281 -18.191406 17.671875 -17.472656 17.671875 -16.578125 C 17.671875 -16.035156 17.519531 -15.578125 17.21875 -15.203125 C 16.925781 -14.835938 16.5625 -14.65625 16.125 -14.65625 C 15.820312 -14.65625 15.53125 -14.71875 15.25 -14.84375 C 14.96875 -14.96875 14.609375 -15.148438 14.171875 -15.390625 C 13.378906 -15.796875 12.695312 -16.097656 12.125 -16.296875 C 11.5625 -16.503906 10.859375 -16.609375 10.015625 -16.609375 C 9.015625 -16.609375 8.222656 -16.40625 7.640625 -16 C 7.054688 -15.59375 6.765625 -15.035156 6.765625 -14.328125 C 6.765625 -13.648438 7.0625 -13.132812 7.65625 -12.78125 C 8.25 -12.425781 9.398438 -12.078125 11.109375 -11.734375 C 12.929688 -11.347656 14.359375 -10.910156 15.390625 -10.421875 C 16.421875 -9.929688 17.160156 -9.320312 17.609375 -8.59375 C 18.054688 -7.863281 18.28125 -6.925781 18.28125 -5.78125 C 18.28125 -3.9375 17.515625 -2.457031 15.984375 -1.34375 C 14.453125 -0.226562 12.410156 0.328125 9.859375 0.328125 Z M 9.859375 0.328125 "/></g></g></g></svg>